# xmcd
#
# Track frame offsets: 
#        150
#        16102
#        31290
#        48314
#        80242
#        96011
#        114890
#        131209
#        152111
#        191483
#        208948
#        222968
#        238834
#        255718
#        270885
#        287790
#        320786
#
# Disc length: 4490 seconds
#
# Revision: 0
# Processed by: cddbd v1.5.2PL0 Copyright (c) Steve Scherf et al.
# Submitted via: ExactAudioCopy v1.0b3
#
DISCID=f6118811
DTITLE=Various Artist - Trancefloor Vol. 1 - CD 1
DYEAR=1900
DGENRE=
TTITLE0=Starsplash - Alive (Radio Edit)
TTITLE1=Rank 1 - It's Up To You (Symsonic)
TTITLE2=Ian Van Dahl - I Can't Let You Go (Radio Edit)
TTITLE3=DJ Lawless Vs. Oliver Swab - Push It Again (Club Mix)
TTITLE4=Mr. Phillips - Stay Alive (Radio One Mix)
TTITLE5=Ayu - Depend On You (Svenson and Gielen Radio Edit)
TTITLE6=Apollo - 2gether 4ever (Single Mix)
TTITLE7=Potatoheadz Feat. Da Rock MC - Get Down
TTITLE8=Global Bass Players - Love Insight (Club Mix)
TTITLE9=Armin Van Buuren Feat. Justine Suissa - Burned With Desire (Ro
TTITLE9=nski Speed Radio Edit)
TTITLE10=Andre Visior - Angels (Radio Version)
TTITLE11=Nightwatchers - Visions (Radio Edit)
TTITLE12=Freddy Fader - Everybody Scream (Radio Edit)
TTITLE13=E-Love - Cause I Don't Love You No More (Escanor Radio Edit)
TTITLE14=Magic D Feat. Upsynth - Till We Meet Again (S.A.D. Radio Edit
TTITLE14=)
TTITLE15=DJ Roland Kenzo - Listen-Feel-Enjoy (Original Mix)
TTITLE16=Benassi Bros. Feat. Sandy - Illusion (French Sfaction Radio E
TTITLE16=dit)
EXTD=
EXTT0=
EXTT1=
EXTT2=
EXTT3=
EXTT4=
EXTT5=
EXTT6=
EXTT7=
EXTT8=
EXTT9=
EXTT10=
EXTT11=
EXTT12=
EXTT13=
EXTT14=
EXTT15=
EXTT16=
PLAYORDER=
